<?xml version="1.0" encoding="UTF-8" standalone="no"?>
<svg width="220px" height="150px" viewBox="0 0 220 150" version="1.1" xmlns="http://www.w3.org/2000/svg" xmlns:xlink="http://www.w3.org/1999/xlink" xmlns:sketch="http://www.bohemiancoding.com/sketch/ns">
    <!-- Generator: Sketch 3.3.2 (12043) - http://www.bohemiancoding.com/sketch -->
    <title>logo</title>
    <desc>Created with Sketch.</desc>
    <defs></defs>
    <g id="Page-1" stroke="none" stroke-width="1" fill="none" fill-rule="evenodd" sketch:type="MSPage">
        <g id="logo" sketch:type="MSArtboardGroup">
            <g id="Oval-+-Oval-3" sketch:type="MSLayerGroup" transform="translate(10.000000, 12.000000)">
                <path d="M96.3829101,118.900174 C115.301193,107.810139 128,87.2997237 128,63.8311676 C128,28.5781872 99.346224,0 64,0 C28.653776,0 0,28.5781872 0,63.8311676 C0,88.4816141 14.0100526,109.86847 34.5217914,120.503175 L39.8064288,89.2452994 C32.9494443,82.596562 28.6896552,73.2973145 28.6896552,63.0057645 C28.6896552,42.7960818 45.1161733,26.4128969 65.3793103,26.4128969 C85.6424474,26.4128969 102.068966,42.7960818 102.068966,63.0057645 C102.068966,73.3136707 97.7956256,82.6261179 90.919479,89.2769795 L96.3829102,118.900177 Z" id="Oval" fill="#353232" sketch:type="MSShapeGroup"></path>
                <path d="M71.4743398,81.8900389 C79.3412964,79.0620877 84.9655172,71.5514299 84.9655172,62.7306302 C84.9655172,51.4861451 75.8259508,42.3706888 64.5517241,42.3706888 C53.2774975,42.3706888 44.137931,51.4861451 44.137931,62.7306302 C44.137931,71.7399869 50.0051731,79.3825908 58.1366516,82.0649409 L46.8965517,126.561798 L82.7586207,126.561798 L71.4743398,81.8900389 Z" id="Oval-3" fill="#5A5A5A" sketch:type="MSShapeGroup"></path>
            </g>
            <text id="6.4-MB/s" sketch:type="MSTextLayer" font-family="Monaco" font-size="16" font-weight="normal" fill="#000000">
                <tspan x="129" y="134">6.4 MB/s</tspan>
            </text>
        </g>
    </g>
</svg>